<?xml version="1.0" encoding="UTF-8"?>
<svg id="Layer_2" data-name="Layer 2" xmlns="http://www.w3.org/2000/svg" viewBox="0 0 362.76 422.67">
  <defs>
    <style>
      .cls-1 {
        stroke-width: 0px;
      }
    </style>
  </defs>
  <g id="Layer_1-2" data-name="Layer 1">
    <g>
      <path class="cls-1" d="m0,263.11c.21-29.46,6.69-63.59,25.71-87.33.78-4.12,5.9-6.27,6.77-10.4,5.69-4.11,3.13-6.3,1.62-11.53-10.24-31.75.84-67.89,24.09-91.11,2.65-2.58,6.28-5.01,7.75-8.29-.11-1.75-2.6-1.52-3.57-2.51-12.87-7.8-23.54-21.13-27.29-35.78-1.04-10.38,9.94-21.6,19.39-13.1,6.6,4.55,6.18,16.3,15.15,22.02,44.41,32.41,79.15-44.23,179.98,4.24,9.67,4.79,22.51,6.08,32.42,1.36,1.89-1.58,4.53-.87,6.35-2.46,1.5-1.41,3.1-3.21,4.99-3.95,6.12-4.14,8.75-12.13,11.79-18.83,14.9-16.77,31.09,9.38,17.76,22.37.28.36.53.67.68.86-2.85,2.27-3.54,6.39-6.49,8.37-1.38.28-1.42.82-.77,1.62-16.32,19.14-24.4,11.21-11.58,24.1,20.02,19.23,31.27,49.49,27.5,77.63-.58,4.69-1.6,9.23-2.57,13.55-1.33,2.64-3.51,7.85-.8,10.35,28.91,31.93,38.75,77.17,31.64,119.47-18.21,74.9-89.26,134.24-167.09,138.53-56.91,3.85-116.43-21.39-151.88-65.01-16.01-16.23-28.72-39.44-35.64-61.95-2.69-7.65-3.75-16.13-4.84-24.28-.66-2.1.96-7.17-1.08-7.93Zm161.79-66.02c-17.73,11.66-39.58,19.09-61.67,14.9-8.71-1.74-17.03-4.38-24.94-8.25-1.06-.99-2.81-2.35-4.1-1.21,8.4,12.55,15.77,26.9,17.8,41.48.56,5.42,7.81,5.22,11.39,8.01,8.64,3.52,16.43,8.6,24.32,13.45,17.23,12.99,55.05,45.92,45.01,69.46-18.26,19.15-26.1-15.72-36.54-25.7-11.07-13.17-24.97-24.87-41.13-30.28-2.2.24-.42,4.48-1.21,5.96-2.64,18.29-7.88,37.52-18.94,53.11-1.38,2.86-6.35,5.67-4.27,9.07,59.01,64.78,173.3,67.4,229.36-1.89-9.96-14.59-19.3-30.95-22.27-47.93-2.24-4.43-.38-15.08-3.76-18.21-20.77,7.07-40.68,24.98-50.39,44.67-4.55,5.59-5.65,16.19-14.56,16.4-7.32.7-12.21-4.65-13.67-11.15,3.95-37.75,46.5-67.94,79.49-80.74,2.47-.32,2.11-3.04,2.43-4.88,2.66-12.28,7.55-23.9,13.84-34.74,1.22-2.3,4.93-4.55,3.61-7.39-26.98,16.29-63.46,16.37-87.89-3.94-3.47-1.09-3.34,5.89-5.07,7.53-17.48,40.09-24.02,21.76-36.85-7.72Zm7.09-68.18c-.74-40.16-44.71-71.01-81.82-53.56-48.04,22.86-36.94,100.48,14.67,109.07,33.36,9.25,69.09-20.76,67.14-55.51Zm137.88-1.94s0,0,0,0c.06-71.27-92.49-74.35-109.94-11.75-18.66,85.45,108.22,97.18,109.93,11.75ZM27.12,256.57s-.01,0-.02,0c-.47,16.35,3.62,33.35,10.73,48.09,1.35,2.95,8.41,19.03,11.94,16.27,17.53-25.64,19.21-59.71,7.9-88.39-1.84-3.54-15.99-31.19-19.74-23.91-8.23,14.41-11.16,31.15-10.8,47.95Zm309.02,6.36c1.07-18.49-.85-41.94-13.21-56.38-28.12,30.15-33.21,80.83-8.69,114.22,5.97-1.27,12.43-18.4,14.74-24.25,4.79-9.93,6.87-23.15,7.16-33.59ZM225.63,48.83c-23.89-12.38-53.9-11.89-78.99-3.51-3.3.83-9.14,2.71-2.9,5.12,14.94,8.39,28.08,19.49,37.47,33.72,2.63.64,3.97-3.91,5.53-5.49,9.26-13.57,23.76-23.55,38.89-29.84Z"/>
      <path class="cls-1" d="m120.44,107.22c22.89-1.97,31.64,34.88,7.85,43.1-20.93,10.23-40.25-19.61-25.09-35.76,3.63-3.56,12.79-9.58,17.23-7.34Z"/>
      <path class="cls-1" d="m243.51,107.25c27.41-1.22,30.04,40.34,3.93,44.63-32.29,4.11-35.93-44.06-3.93-44.69,0,.02,0,.04,0,.06Z"/>
    </g>
  </g>
</svg>
